<svg width="384" height="298" fill="none" xmlns="http://www.w3.org/2000/svg"><path d="M.74 65.994l64.997 23.494v24.513L24.05 98.341v159.023l41.853 15.494V298L.574 274.557.74 65.994zm382.668 166.012l-64.996-23.487v-24.513l41.686 15.66V40.636l-41.852-15.494V0l65.328 23.443-.166 208.563zM78.392 150.604l-2.63.911.347-13.904-6.847 2.377-.347 13.904-2.63.911.405-16.397 12.1-4.199-.398 16.397zm12.135-4.213l.347-13.911-4.616 1.604-.47 7.899c-.28 4.639-2.029 7.053-4.167 7.797a4.767 4.767 0 01-1.567.246l.057-2.211c.31.029.816-.101 1.026-.174 1.07-.375 1.907-1.344 2.138-5.557l.527-9.611 9.766-3.39-.404 16.398-2.637.91zm18.326-6.359l-2.81.975-1.322-3.859-5.923 2.053-1.575 4.863-2.708.94 6.183-18.421 2.795-.969 5.36 14.418zm-6.826-10.942l-2.506 7.719 4.558-1.583-2.052-6.136zm17.387-6.504l-4.768 1.655-.346 13.905-2.622.91.346-13.911-4.767 1.655.065-2.486 12.164-4.221-.072 2.493zm8.986 8.839l-.051 1.842-2.629.911.043-1.843c-3.192 1.041-6.392.094-6.284-4.184.101-4.17 3.185-7.472 6.609-8.78l.036-1.59 2.623-.911-.037 1.59c3.482-1.07 6.393.137 6.285 4.3-.094 4.293-3.381 7.487-6.595 8.665zm-2.369-9.561c-2.276 1.04-3.858 2.71-3.923 5.384-.065 2.674 1.445 3.107 3.727 2.608l.196-7.992zm2.629-.911l-.195 7.993c2.297-1.091 3.857-2.594 3.915-5.261.065-2.674-1.459-3.267-3.72-2.732zm22.197-3.62c-.13 5.116-3.135 9.604-7.396 11.085-4.284 1.489-7.094-.982-6.971-6.099.116-4.813 2.86-9.51 7.44-11.093 4.219-1.467 7.05 1.019 6.927 6.107zm-11.723 4.025c-.094 3.823 1.611 5.608 4.428 4.632 2.73-.946 4.551-4.003 4.644-7.754.094-3.751-1.61-5.536-4.384-4.575-2.745.947-4.594 3.99-4.688 7.697zm20.883-15.328c3.084-1.069 5.172-.238 5.085 3.187-.079 3.108-1.958 5.724-4.977 6.771l-4.226 1.467-.151 6.309-2.63.911.412-16.397 6.487-2.248zm-4.06 9.106l3.655-1.272c1.705-.593 2.875-1.749 2.926-3.686.05-2.117-1.366-2.175-3.02-1.597l-3.424 1.185-.137 5.37zm26.655-.687l-2.5.867.311-12.639-4.471 14.085-2.146.744-3.951-11.165-.311 12.639-2.477.86.404-16.397 3.677-1.279 3.865 11.375 4.348-14.222 3.655-1.272-.404 16.404zm15.718-5.456l-2.81.976-1.322-3.859-5.923 2.052-1.575 4.864-2.709.939 6.183-18.42 2.796-.97 5.36 14.418zm-6.826-10.941l-2.507 7.718 4.558-1.583-2.051-6.135z" fill="#8F00FF"/><path d="M65.065 163.728l2.897-1.005 3.394 7.545 3.916-10.081 2.838-.983-6.14 15.075c-1.329 3.245-2.694 4.632-4.355 5.21-.672.232-1.337.261-1.755.196l.057-2.421c.267.086.744.151 1.669-.167.968-.332 1.517-1.459 2.333-3.324l.022-.05-4.876-9.995zm26.105 7.198l-2.629.91.18-7.371-6.847 2.378-.18 7.371-2.63.911.404-16.398 2.623-.91-.16 6.518 6.848-2.378.16-6.518 2.621-.911-.39 16.398zm3.496-17.467l2.623-.911-.311 12.575 6.739-14.801 3.041-1.055-.404 16.398-2.622.91.31-12.567-6.739 14.8-3.041 1.063.404-16.412zm22.01-7.639c3.236-1.12 4.811 0 4.746 2.436-.036 1.59-.954 3.208-2.225 4.198 1.69-.13 2.767.889 2.716 3.007-.072 2.905-2.051 5.506-4.847 6.475l-7.62 2.645.404-16.398 6.826-2.363zm-4.616 15.53l3.93-1.365c1.762-.615 3.251-1.583 3.301-3.679.058-2.255-1.51-2.031-3.214-1.445l-3.887 1.351-.13 5.138zm.181-7.212l3.568-1.236c1.958-.679 2.962-1.618 2.998-3.281.051-2.052-1.307-1.784-2.803-1.264l-3.655 1.272-.108 4.509zm23.122-12.408l-8.17 2.833-.108 4.358 7.585-2.631-.058 2.327-7.585 2.63-.122 4.835 8.299-2.883-.065 2.464-10.9 3.787.405-16.398 10.777-3.736-.058 2.414zm9.102-5.55c3.084-1.07 5.172-.239 5.085 3.187-.079 3.107-1.95 5.723-4.977 6.771l-4.226 1.467-.151 6.309-2.63.911.405-16.398 6.494-2.247zm-4.06 9.105l3.655-1.271c1.698-.593 2.875-1.749 2.926-3.686.05-2.117-1.366-2.175-3.02-1.597l-3.424 1.185-.137 5.369zm17.437 2.898c-4.225 1.467-6.912-.982-6.782-6.157.115-4.654 2.795-9.467 7.331-11.042 2.984-1.034 5.714-.202 6.119 3.425l-2.608.904c-.303-1.858-1.683-2.544-3.619-1.872-3.149 1.091-4.507 4.647-4.58 7.66-.079 3.043 1.069 5.724 4.255 4.618 2.434-.845 3.59-3.006 3.93-5.521l2.622-.911c-.362 4.083-2.926 7.596-6.668 8.896zm9.174-19.822l2.622-.911-.31 12.567 6.739-14.8 3.048-1.055-.404 16.397-2.622.911.31-12.575-6.739 14.808-3.048 1.055.404-16.397zm25.911-6.526l-4.768 1.655-.347 13.904-2.622.911.347-13.912-4.767 1.655.057-2.486 12.165-4.22-.065 2.493zm12.467-4.394l-8.169 2.833-.109 4.35 7.585-2.63-.058 2.327-7.585 2.63-.122 4.835 8.292-2.876-.058 2.464-10.9 3.787.405-16.397 10.777-3.737-.058 2.414zm13.241-4.531l-4.768 1.655-.346 13.904-2.623.911.347-13.905-4.767 1.655.058-2.486 12.164-4.22-.065 2.486zm7.252 11.664c-4.218 1.467-6.906-.983-6.783-6.165.116-4.654 2.796-9.459 7.332-11.035 2.983-1.033 5.714-.202 6.118 3.426l-2.6.903c-.311-1.857-1.683-2.544-3.619-1.872-3.15 1.092-4.508 4.647-4.587 7.668-.079 3.042 1.062 5.723 4.255 4.618 2.434-.846 3.597-3.007 3.929-5.514l2.629-.911c-.368 4.069-2.932 7.588-6.674 8.882zm15.711-15.61l6.118 7.653-3.258 1.128-4.716-6.15-2.196 3.093-.138 5.499-2.607.904.404-16.398 2.601-.903-.181 7.436 6.805-9.734 3.315-1.149-6.147 8.621zm20.97-5.629c-.13 5.109-3.135 9.604-7.397 11.085-4.284 1.482-7.101-.983-6.971-6.099.116-4.813 2.861-9.51 7.44-11.093 4.219-1.467 7.05 1.019 6.928 6.107zm-11.724 4.025c-.094 3.823 1.611 5.608 4.421 4.625 2.73-.947 4.558-4.004 4.652-7.754.093-3.758-1.611-5.536-4.385-4.575-2.752.954-4.594 3.996-4.688 7.704zm13.912 3.346l.405-16.39 10.149-3.52-.058 2.486-7.52 2.609-.346 13.911-2.63.904zm25.593-17.005c-.13 5.11-3.135 9.605-7.397 11.079-4.283 1.489-7.093-.983-6.971-6.1.116-4.813 2.861-9.51 7.441-11.1 4.218-1.46 7.05 1.026 6.927 6.121zm-11.717 4.018c-.093 3.823 1.611 5.608 4.421 4.633 2.731-.947 4.558-4.004 4.645-7.755.094-3.757-1.611-5.535-4.385-4.574-2.745.954-4.594 3.99-4.681 7.696zM77.38 186.673l-4.767 1.655-.346 13.904-2.623.91.347-13.911-4.767 1.655.058-2.486 12.164-4.22-.065 2.493zm12.519-4.416l-8.17 2.833-.108 4.351 7.577-2.631-.057 2.327-7.585 2.631-.123 4.834 8.293-2.876-.058 2.464-10.9 3.787.404-16.397 10.778-3.736-.051 2.413zm5.952 3.375l-4.76-6.179 3.128-1.084 3.257 4.625 3.699-7.031 2.94-1.019-5.15 9.619 5.099 6.655-3.193 1.106-3.582-4.965-3.959 7.581-3.026 1.048 5.547-10.356zm21.822.853l-2.629.91.18-7.371-6.848 2.378-.18 7.371-2.622.911.404-16.398 2.622-.91-.158 6.518 6.847-2.377.159-6.519 2.622-.91-.397 16.397zm16.874-13.984c-.123 5.109-3.135 9.604-7.397 11.086-4.283 1.481-7.093-.983-6.97-6.099.122-4.813 2.86-9.511 7.44-11.101 4.218-1.459 7.05 1.027 6.927 6.114zm-11.716 4.018c-.094 3.823 1.61 5.608 4.428 4.633 2.73-.947 4.557-4.004 4.644-7.755.094-3.758-1.611-5.535-4.384-4.574-2.753.954-4.602 3.989-4.688 7.696zm22.602.333l.346-13.912-4.623 1.605-.469 7.906c-.282 4.639-2.03 7.053-4.168 7.79a4.796 4.796 0 01-1.568.246l.058-2.212c.311.029.809-.101 1.026-.173 1.076-.376 1.907-1.344 2.138-5.557l.527-9.612 9.766-3.389-.404 16.397-2.629.911zm19.51-14.895c-.123 5.117-3.135 9.605-7.397 11.086-4.283 1.489-7.093-.983-6.97-6.099.115-4.813 2.86-9.51 7.44-11.093 4.226-1.474 7.057 1.019 6.927 6.106zm-11.716 4.018c-.094 3.823 1.611 5.608 4.42 4.626 2.731-.947 4.558-4.004 4.645-7.755.094-3.75-1.611-5.535-4.385-4.574-2.744.961-4.586 3.996-4.68 7.703zm13.934 3.339l.404-16.397 10.142-3.52-.058 2.486-7.52 2.609-.346 13.912-2.622.91zm12.128-20.459l2.629-.91-.311 12.567 6.74-14.8 3.048-1.055-.404 16.397-2.63.911.311-12.575-6.739 14.808-3.049 1.055.405-16.398zm19.749 2.732c-4.58 1.59-5.172-1.358-5.129-3.172l.116-4.676 2.629-.911-.094 3.802c-.029 1.337-.036 3.302 2.962 2.262a22.703 22.703 0 003.517-1.612l.167-6.721 2.622-.91-.405 16.397-2.629.911.18-7.184c-.96.513-2.759 1.409-3.936 1.814zm20.557-14.323l-8.169 2.833-.109 4.35 7.585-2.63-.058 2.327-7.577 2.63-.123 4.835 8.293-2.876-.058 2.464-10.9 3.787.404-16.398 10.777-3.736-.065 2.414zm8.452 11.317c-4.226 1.467-6.913-.983-6.783-6.165.116-4.654 2.795-9.459 7.332-11.035 2.983-1.033 5.714-.202 6.118 3.426l-2.6.903c-.311-1.857-1.683-2.544-3.619-1.872-3.15 1.092-4.508 4.647-4.587 7.661-.08 3.042 1.062 5.723 4.254 4.618 2.435-.846 3.598-3.007 3.93-5.514l2.629-.911c-.368 4.076-2.932 7.595-6.674 8.889zm15.646-15.588l6.118 7.646-3.258 1.127-4.717-6.15-2.203 3.093-.137 5.5-2.608.903.405-16.397 2.6-.904-.173 7.451 6.797-9.734 3.323-1.149-6.147 8.614zm21.042-5.659c-.13 5.11-3.135 9.605-7.397 11.086-4.284 1.482-7.094-.983-6.971-6.099.116-4.813 2.861-9.511 7.44-11.1 4.219-1.46 7.05 1.026 6.928 6.113zm-11.724 4.026c-.094 3.823 1.611 5.608 4.421 4.632 2.73-.947 4.558-4.004 4.644-7.754.094-3.751-1.61-5.536-4.384-4.575-2.745.954-4.587 3.989-4.681 7.697zm13.905 3.346l.405-16.398 10.141-3.519-.058 2.486-7.519 2.609-.347 13.911-2.622.911zm25.578-16.998c-.13 5.11-3.135 9.605-7.397 11.079-4.283 1.489-7.1-.983-6.97-6.099.115-4.813 2.86-9.511 7.44-11.101 4.218-1.459 7.05 1.027 6.927 6.121zm-11.716 4.018c-.094 3.823 1.611 5.601 4.421 4.626 2.73-.947 4.558-4.004 4.644-7.755.094-3.75-1.611-5.535-4.384-4.574-2.745.961-4.595 3.996-4.681 7.703zM78.392 224.866l-2.63.91.347-13.904-6.847 2.378-.347 13.904-2.63.911.405-16.398 12.1-4.199-.398 16.398zm10.012-19.729c3.084-1.07 5.172-.246 5.085 3.187-.08 3.107-1.958 5.724-4.977 6.771l-4.218 1.467-.16 6.309-2.629.911.405-16.398 6.494-2.247zm-4.06 9.106L88 212.971c1.705-.593 2.875-1.749 2.926-3.686.05-2.117-1.365-2.175-3.02-1.597l-3.424 1.185-.137 5.37zm22.234-13.016l-8.17 2.833-.108 4.351 7.584-2.631-.057 2.327-7.585 2.631-.116 4.834 8.293-2.876-.065 2.464-10.9 3.787.404-16.397 10.778-3.736-.058 2.413zm12.836 13.449l.101-4.076-9.744 3.382-.102 4.076-2.542.882.159-6.562 1.452-.506c1.192-2.601 2.123-7.544 2.232-12.054l.065-2.536 9.744-3.383-.347 13.905 1.683-.586-.158 6.562-2.543.896zm-1.315-17.373l-4.558 1.583-.021.99c-.102 4.076-.983 8.65-1.958 11.021l6.255-2.176.282-11.418zm17.813 7.603l-2.629.91.347-13.911-6.848 2.378-.347 13.904-2.629.91.404-16.397 12.099-4.199-.397 16.405zm10.106-19.758c3.091-1.07 5.172-.246 5.085 3.187-.079 3.107-1.958 5.723-4.977 6.771l-4.226 1.467-.159 6.309-2.629.911.405-16.398 6.501-2.247zm-4.06 9.098l3.655-1.272c1.698-.592 2.875-1.748 2.926-3.685.05-2.118-1.366-2.175-3.02-1.597l-3.424 1.185-.137 5.369zm11.449-11.664l2.622-.91-.31 12.574 6.739-14.8 3.048-1.055-.404 16.397-2.629.911.31-12.575-6.739 14.808-3.048 1.055.411-16.405zm26.835 6.945l-2.622.911.181-7.371-6.848 2.377-.181 7.371-2.622.911.405-16.397 2.629-.911-.159 6.519 6.848-2.378.159-6.518 2.629-.911-.419 16.397zm3.482-17.459l2.629-.911-.31 12.575 6.739-14.808 3.048-1.055-.404 16.397-2.629.911.31-12.575-6.739 14.801-3.049 1.055.405-16.39zm30.396 5.709l-2.499.867.31-12.64-4.471 14.085-2.145.745-3.951-11.166-.318 12.64-2.478.86.405-16.398 3.676-1.279 3.858 11.375 4.348-14.222 3.655-1.272-.39 16.405zm15.762-5.471l-2.818.976-1.321-3.859-5.924 2.052-1.574 4.864-2.709.939 6.183-18.421 2.796-.968 5.367 14.417zm-6.827-10.934l-2.506 7.718 4.558-1.582-2.052-6.136zm17.394-6.518l-4.767 1.655-.347 13.904-2.622.91.347-13.911-4.768 1.655.058-2.486 12.164-4.221-.065 2.494zm12.41-4.373l-8.169 2.833-.109 4.351 7.585-2.631-.058 2.327-7.585 2.631-.122 4.834 8.299-2.876-.065 2.465-10.9 3.786.405-16.397 10.777-3.736-.058 2.413zm11.254 9.952l.347-13.905-4.623 1.605-.469 7.899c-.282 4.639-2.023 7.053-4.168 7.797a4.798 4.798 0 01-1.568.246l.058-2.211c.311.028.816-.102 1.026-.174 1.069-.376 1.907-1.344 2.138-5.557l.527-9.612 9.766-3.389-.404 16.39-2.63.911zm12.345-4.286l-6.616 2.298.404-16.397 2.629-.911-.151 6.266 3.987-1.388c3.279-1.134 5.056.051 4.984 3.274-.087 3.252-1.979 5.731-5.237 6.858zm.043-7.725l-3.842 1.33-.138 5.434 3.887-1.351c1.719-.6 2.607-1.793 2.651-3.563.043-1.727-.918-2.421-2.558-1.85zm13.609 3.382c-4.225 1.467-6.912-.983-6.782-6.164.115-4.654 2.788-9.46 7.331-11.043 2.984-1.033 5.707-.202 6.119 3.426l-2.601.903c-.31-1.857-1.69-2.544-3.619-1.872-3.149 1.092-4.507 4.647-4.587 7.661-.072 3.042 1.069 5.723 4.255 4.617 2.442-.845 3.597-3.006 3.93-5.514l2.629-.91c-.368 4.083-2.94 7.595-6.675 8.896zm19.59-20.972l-4.767 1.655-.347 13.911-2.622.911.347-13.911-4.768 1.654.058-2.486 12.164-4.22-.065 2.486zm8.553-5.434c3.236-1.121 4.811 0 4.753 2.435-.036 1.59-.954 3.209-2.232 4.199 1.69-.13 2.774.889 2.716 3.006-.072 2.898-2.052 5.507-4.847 6.475l-7.621 2.645.405-16.397 6.826-2.363zm-4.609 15.523l3.93-1.366c1.77-.615 3.25-1.583 3.301-3.679.058-2.254-1.51-2.03-3.207-1.445l-3.886 1.344-.138 5.146zm.181-7.205l3.568-1.236c1.958-.68 2.955-1.619 2.998-3.281.051-2.053-1.307-1.785-2.803-1.265l-3.655 1.265-.108 4.517zm24.625.925l-2.81.975-1.322-3.859-5.923 2.052-1.575 4.864-2.709.94 6.183-18.421 2.796-.969 5.36 14.418zm-6.827-10.934l-2.506 7.718 4.558-1.583-2.052-6.135z" fill="#8F00FF"/></svg>